<svg xmlns="http://www.w3.org/2000/svg" xmlns:xlink="http://www.w3.org/1999/xlink" contentStyleType="text/css" height="574px" preserveAspectRatio="none" style="width:1027px;height:574px;background:#FFFFFF;" version="1.1" viewBox="0 0 1027 574" width="1027px" zoomAndPan="magnify"><defs/><g><!--cluster d3331d6a5fc7a2d8f35a32bfeb844ff3--><g id="cluster_d3331d6a5fc7a2d8f35a32bfeb844ff3"><path d="M8.5,6 L79.5,6 A3.75,3.75 0 0 1 82,8.5 L89,28.2969 L462.5,28.2969 A2.5,2.5 0 0 1 465,30.7969 L465,272.28 A2.5,2.5 0 0 1 462.5,274.78 L8.5,274.78 A2.5,2.5 0 0 1 6,272.28 L6,8.5 A2.5,2.5 0 0 1 8.5,6 " fill="none" style="stroke:#000000;stroke-width:1.5;"/><line style="stroke:#000000;stroke-width:1.5;" x1="6" x2="89" y1="28.2969" y2="28.2969"/><text fill="#000000" font-family="sans-serif" font-size="14" font-weight="bold" lengthAdjust="spacing" textLength="70" x="10" y="20.9951">projects/</text></g><!--cluster 7e28dda2fb4ccfe96f3aaf38ae8584db--><g id="cluster_7e28dda2fb4ccfe96f3aaf38ae8584db"><path d="M904.5,6 L958.5,6 A3.75,3.75 0 0 1 961,8.5 L968,28.2969 L1017.5,28.2969 A2.5,2.5 0 0 1 1020,30.7969 L1020,272.28 A2.5,2.5 0 0 1 1017.5,274.78 L904.5,274.78 A2.5,2.5 0 0 1 902,272.28 L902,8.5 A2.5,2.5 0 0 1 904.5,6 " fill="none" style="stroke:#000000;stroke-width:1.5;"/><line style="stroke:#000000;stroke-width:1.5;" x1="902" x2="968" y1="28.2969" y2="28.2969"/><text fill="#000000" font-family="sans-serif" font-size="14" font-weight="bold" lengthAdjust="spacing" textLength="53" x="906" y="20.9951">Graph/</text></g><!--cluster 96b9097eaea47f20aa88294b7549df09--><g id="cluster_96b9097eaea47f20aa88294b7549df09"><path d="M491.5,6 L542.5,6 A3.75,3.75 0 0 1 545,8.5 L552,28.2969 L875.5,28.2969 A2.5,2.5 0 0 1 878,30.7969 L878,426.17 A2.5,2.5 0 0 1 875.5,428.67 L491.5,428.67 A2.5,2.5 0 0 1 489,426.17 L489,8.5 A2.5,2.5 0 0 1 491.5,6 " fill="none" style="stroke:#000000;stroke-width:1.5;"/><line style="stroke:#000000;stroke-width:1.5;" x1="489" x2="552" y1="28.2969" y2="28.2969"/><text fill="#000000" font-family="sans-serif" font-size="14" font-weight="bold" lengthAdjust="spacing" textLength="50" x="493" y="20.9951">users/</text></g><!--cluster b2f2d161e61abe4c2dbc63c26abc5a9a--><g id="cluster_b2f2d161e61abe4c2dbc63c26abc5a9a"><path d="M8.5,298.78 L48.5,298.78 A3.75,3.75 0 0 1 51,301.28 L58,321.0769 L462.5,321.0769 A2.5,2.5 0 0 1 465,323.5769 L465,565.06 A2.5,2.5 0 0 1 462.5,567.56 L8.5,567.56 A2.5,2.5 0 0 1 6,565.06 L6,301.28 A2.5,2.5 0 0 1 8.5,298.78 " fill="none" style="stroke:#000000;stroke-width:1.5;"/><line style="stroke:#000000;stroke-width:1.5;" x1="6" x2="58" y1="321.0769" y2="321.0769"/><text fill="#000000" font-family="sans-serif" font-size="14" font-weight="bold" lengthAdjust="spacing" textLength="39" x="10" y="313.7751">blog/</text></g><!--entity bbf5afcb368603c12c39567a1803f75a--><g id="elem_bbf5afcb368603c12c39567a1803f75a"><rect fill="#F1F1F1" height="78.8906" rx="2.5" ry="2.5" style="stroke:#181818;stroke-width:0.5;" width="70" x="22" y="41"/><rect fill="#F1F1F1" height="10" style="stroke:#181818;stroke-width:0.5;" width="15" x="72" y="46"/><rect fill="#F1F1F1" height="2" style="stroke:#181818;stroke-width:0.5;" width="4" x="70" y="48"/><rect fill="#F1F1F1" height="2" style="stroke:#181818;stroke-width:0.5;" width="4" x="70" y="52"/><text fill="#000000" font-family="sans-serif" font-size="14" font-weight="bold" lengthAdjust="spacing" textLength="30" x="37" y="73.9951">urls</text><text fill="#000000" font-family="sans-serif" font-size="14" lengthAdjust="spacing" textLength="4" x="37" y="90.292">&#160;</text><text fill="#000000" font-family="sans-serif" font-size="14" lengthAdjust="spacing" textLength="4" x="37" y="106.5889">&#160;</text></g><!--entity 1bd0271e26fa7ed2c05fe4844e45906b--><g id="elem_1bd0271e26fa7ed2c05fe4844e45906b"><rect fill="#F1F1F1" height="78.8906" rx="2.5" ry="2.5" style="stroke:#181818;stroke-width:0.5;" width="86" x="242" y="41"/><rect fill="#F1F1F1" height="10" style="stroke:#181818;stroke-width:0.5;" width="15" x="308" y="46"/><rect fill="#F1F1F1" height="2" style="stroke:#181818;stroke-width:0.5;" width="4" x="306" y="48"/><rect fill="#F1F1F1" height="2" style="stroke:#181818;stroke-width:0.5;" width="4" x="306" y="52"/><text fill="#000000" font-family="sans-serif" font-size="14" font-weight="bold" lengthAdjust="spacing" textLength="46" x="257" y="73.9951">views</text><text fill="#000000" font-family="sans-serif" font-size="14" lengthAdjust="spacing" textLength="4" x="257" y="90.292">&#160;</text><text fill="#000000" font-family="sans-serif" font-size="14" lengthAdjust="spacing" textLength="4" x="257" y="106.5889">&#160;</text></g><!--entity 39f1ad2718b06515348edfb44266ed59--><g id="elem_39f1ad2718b06515348edfb44266ed59"><rect fill="#F1F1F1" height="78.8906" rx="2.5" ry="2.5" style="stroke:#181818;stroke-width:0.5;" width="80" x="127" y="41"/><rect fill="#F1F1F1" height="10" style="stroke:#181818;stroke-width:0.5;" width="15" x="187" y="46"/><rect fill="#F1F1F1" height="2" style="stroke:#181818;stroke-width:0.5;" width="4" x="185" y="48"/><rect fill="#F1F1F1" height="2" style="stroke:#181818;stroke-width:0.5;" width="4" x="185" y="52"/><text fill="#000000" font-family="sans-serif" font-size="14" font-weight="bold" lengthAdjust="spacing" textLength="40" x="142" y="73.9951">tests</text><text fill="#000000" font-family="sans-serif" font-size="14" lengthAdjust="spacing" textLength="4" x="142" y="90.292">&#160;</text><text fill="#000000" font-family="sans-serif" font-size="14" lengthAdjust="spacing" textLength="4" x="142" y="106.5889">&#160;</text></g><!--entity 6cb223c87247e6c429f9c17217c6d21f--><g id="elem_6cb223c87247e6c429f9c17217c6d21f"><rect fill="#F1F1F1" height="78.8906" rx="2.5" ry="2.5" style="stroke:#181818;stroke-width:0.5;" width="78" x="22" y="179.89"/><rect fill="#F1F1F1" height="10" style="stroke:#181818;stroke-width:0.5;" width="15" x="80" y="184.89"/><rect fill="#F1F1F1" height="2" style="stroke:#181818;stroke-width:0.5;" width="4" x="78" y="186.89"/><rect fill="#F1F1F1" height="2" style="stroke:#181818;stroke-width:0.5;" width="4" x="78" y="190.89"/><text fill="#000000" font-family="sans-serif" font-size="14" font-weight="bold" lengthAdjust="spacing" textLength="38" x="37" y="212.8851">apps</text><text fill="#000000" font-family="sans-serif" font-size="14" lengthAdjust="spacing" textLength="4" x="37" y="229.182">&#160;</text><text fill="#000000" font-family="sans-serif" font-size="14" lengthAdjust="spacing" textLength="4" x="37" y="245.4789">&#160;</text></g><!--entity 23d77d41fefe8e8779b28258cc6ae9c8--><g id="elem_23d77d41fefe8e8779b28258cc6ae9c8"><rect fill="#F1F1F1" height="78.8906" rx="2.5" ry="2.5" style="stroke:#181818;stroke-width:0.5;" width="97" x="294.5" y="179.89"/><rect fill="#F1F1F1" height="10" style="stroke:#181818;stroke-width:0.5;" width="15" x="371.5" y="184.89"/><rect fill="#F1F1F1" height="2" style="stroke:#181818;stroke-width:0.5;" width="4" x="369.5" y="186.89"/><rect fill="#F1F1F1" height="2" style="stroke:#181818;stroke-width:0.5;" width="4" x="369.5" y="190.89"/><text fill="#000000" font-family="sans-serif" font-size="14" font-weight="bold" lengthAdjust="spacing" textLength="57" x="309.5" y="212.8851">models</text><text fill="#000000" font-family="sans-serif" font-size="14" lengthAdjust="spacing" textLength="4" x="309.5" y="229.182">&#160;</text><text fill="#000000" font-family="sans-serif" font-size="14" lengthAdjust="spacing" textLength="4" x="309.5" y="245.4789">&#160;</text></g><!--entity 84cd306abce8415462fb7259ab382e9d--><g id="elem_84cd306abce8415462fb7259ab382e9d"><rect fill="#F1F1F1" height="78.8906" rx="2.5" ry="2.5" style="stroke:#181818;stroke-width:0.5;" width="87" x="362.5" y="41"/><rect fill="#F1F1F1" height="10" style="stroke:#181818;stroke-width:0.5;" width="15" x="429.5" y="46"/><rect fill="#F1F1F1" height="2" style="stroke:#181818;stroke-width:0.5;" width="4" x="427.5" y="48"/><rect fill="#F1F1F1" height="2" style="stroke:#181818;stroke-width:0.5;" width="4" x="427.5" y="52"/><text fill="#000000" font-family="sans-serif" font-size="14" font-weight="bold" lengthAdjust="spacing" textLength="47" x="377.5" y="73.9951">admin</text><text fill="#000000" font-family="sans-serif" font-size="14" lengthAdjust="spacing" textLength="4" x="377.5" y="90.292">&#160;</text><text fill="#000000" font-family="sans-serif" font-size="14" lengthAdjust="spacing" textLength="4" x="377.5" y="106.5889">&#160;</text></g><!--entity 151dc171a0cc85173df9fab9c516f9fb--><g id="elem_151dc171a0cc85173df9fab9c516f9fb"><rect fill="#F1F1F1" height="78.8906" rx="2.5" ry="2.5" style="stroke:#181818;stroke-width:0.5;" width="70" x="926" y="41"/><rect fill="#F1F1F1" height="10" style="stroke:#181818;stroke-width:0.5;" width="15" x="976" y="46"/><rect fill="#F1F1F1" height="2" style="stroke:#181818;stroke-width:0.5;" width="4" x="974" y="48"/><rect fill="#F1F1F1" height="2" style="stroke:#181818;stroke-width:0.5;" width="4" x="974" y="52"/><text fill="#000000" font-family="sans-serif" font-size="14" font-weight="bold" lengthAdjust="spacing" textLength="30" x="941" y="73.9951">urls</text><text fill="#000000" font-family="sans-serif" font-size="14" lengthAdjust="spacing" textLength="4" x="941" y="90.292">&#160;</text><text fill="#000000" font-family="sans-serif" font-size="14" lengthAdjust="spacing" textLength="4" x="941" y="106.5889">&#160;</text></g><!--entity 61dcb8780f3a1352cf62142baa004256--><g id="elem_61dcb8780f3a1352cf62142baa004256"><rect fill="#F1F1F1" height="78.8906" rx="2.5" ry="2.5" style="stroke:#181818;stroke-width:0.5;" width="86" x="918" y="179.89"/><rect fill="#F1F1F1" height="10" style="stroke:#181818;stroke-width:0.5;" width="15" x="984" y="184.89"/><rect fill="#F1F1F1" height="2" style="stroke:#181818;stroke-width:0.5;" width="4" x="982" y="186.89"/><rect fill="#F1F1F1" height="2" style="stroke:#181818;stroke-width:0.5;" width="4" x="982" y="190.89"/><text fill="#000000" font-family="sans-serif" font-size="14" font-weight="bold" lengthAdjust="spacing" textLength="46" x="933" y="212.8851">views</text><text fill="#000000" font-family="sans-serif" font-size="14" lengthAdjust="spacing" textLength="4" x="933" y="229.182">&#160;</text><text fill="#000000" font-family="sans-serif" font-size="14" lengthAdjust="spacing" textLength="4" x="933" y="245.4789">&#160;</text></g><!--entity df776118805ac4b8e078d141fd0493db--><g id="elem_df776118805ac4b8e078d141fd0493db"><rect fill="#F1F1F1" height="78.8906" rx="2.5" ry="2.5" style="stroke:#181818;stroke-width:0.5;" width="86" x="618" y="179.89"/><rect fill="#F1F1F1" height="10" style="stroke:#181818;stroke-width:0.5;" width="15" x="684" y="184.89"/><rect fill="#F1F1F1" height="2" style="stroke:#181818;stroke-width:0.5;" width="4" x="682" y="186.89"/><rect fill="#F1F1F1" height="2" style="stroke:#181818;stroke-width:0.5;" width="4" x="682" y="190.89"/><text fill="#000000" font-family="sans-serif" font-size="14" font-weight="bold" lengthAdjust="spacing" textLength="46" x="633" y="212.8851">forms</text><text fill="#000000" font-family="sans-serif" font-size="14" lengthAdjust="spacing" textLength="4" x="633" y="229.182">&#160;</text><text fill="#000000" font-family="sans-serif" font-size="14" lengthAdjust="spacing" textLength="4" x="633" y="245.4789">&#160;</text></g><!--entity db88c3a89f51160f72cf5744be4b8581--><g id="elem_db88c3a89f51160f72cf5744be4b8581"><rect fill="#F1F1F1" height="78.8906" rx="2.5" ry="2.5" style="stroke:#181818;stroke-width:0.5;" width="70" x="505" y="41"/><rect fill="#F1F1F1" height="10" style="stroke:#181818;stroke-width:0.5;" width="15" x="555" y="46"/><rect fill="#F1F1F1" height="2" style="stroke:#181818;stroke-width:0.5;" width="4" x="553" y="48"/><rect fill="#F1F1F1" height="2" style="stroke:#181818;stroke-width:0.5;" width="4" x="553" y="52"/><text fill="#000000" font-family="sans-serif" font-size="14" font-weight="bold" lengthAdjust="spacing" textLength="30" x="520" y="73.9951">urls</text><text fill="#000000" font-family="sans-serif" font-size="14" lengthAdjust="spacing" textLength="4" x="520" y="90.292">&#160;</text><text fill="#000000" font-family="sans-serif" font-size="14" lengthAdjust="spacing" textLength="4" x="520" y="106.5889">&#160;</text></g><!--entity 99213a71be60e5746f7018d66bb13f34--><g id="elem_99213a71be60e5746f7018d66bb13f34"><rect fill="#F1F1F1" height="78.8906" rx="2.5" ry="2.5" style="stroke:#181818;stroke-width:0.5;" width="86" x="725" y="41"/><rect fill="#F1F1F1" height="10" style="stroke:#181818;stroke-width:0.5;" width="15" x="791" y="46"/><rect fill="#F1F1F1" height="2" style="stroke:#181818;stroke-width:0.5;" width="4" x="789" y="48"/><rect fill="#F1F1F1" height="2" style="stroke:#181818;stroke-width:0.5;" width="4" x="789" y="52"/><text fill="#000000" font-family="sans-serif" font-size="14" font-weight="bold" lengthAdjust="spacing" textLength="46" x="740" y="73.9951">views</text><text fill="#000000" font-family="sans-serif" font-size="14" lengthAdjust="spacing" textLength="4" x="740" y="90.292">&#160;</text><text fill="#000000" font-family="sans-serif" font-size="14" lengthAdjust="spacing" textLength="4" x="740" y="106.5889">&#160;</text></g><!--entity 4f52f0649c7849b7314fa1a84d9574ac--><g id="elem_4f52f0649c7849b7314fa1a84d9574ac"><rect fill="#F1F1F1" height="78.8906" rx="2.5" ry="2.5" style="stroke:#181818;stroke-width:0.5;" width="80" x="610" y="41"/><rect fill="#F1F1F1" height="10" style="stroke:#181818;stroke-width:0.5;" width="15" x="670" y="46"/><rect fill="#F1F1F1" height="2" style="stroke:#181818;stroke-width:0.5;" width="4" x="668" y="48"/><rect fill="#F1F1F1" height="2" style="stroke:#181818;stroke-width:0.5;" width="4" x="668" y="52"/><text fill="#000000" font-family="sans-serif" font-size="14" font-weight="bold" lengthAdjust="spacing" textLength="40" x="625" y="73.9951">tests</text><text fill="#000000" font-family="sans-serif" font-size="14" lengthAdjust="spacing" textLength="4" x="625" y="90.292">&#160;</text><text fill="#000000" font-family="sans-serif" font-size="14" lengthAdjust="spacing" textLength="4" x="625" y="106.5889">&#160;</text></g><!--entity f3018945d7b9fadddfe7abdc9f521dc4--><g id="elem_f3018945d7b9fadddfe7abdc9f521dc4"><rect fill="#F1F1F1" height="78.8906" rx="2.5" ry="2.5" style="stroke:#181818;stroke-width:0.5;" width="78" x="505" y="179.89"/><rect fill="#F1F1F1" height="10" style="stroke:#181818;stroke-width:0.5;" width="15" x="563" y="184.89"/><rect fill="#F1F1F1" height="2" style="stroke:#181818;stroke-width:0.5;" width="4" x="561" y="186.89"/><rect fill="#F1F1F1" height="2" style="stroke:#181818;stroke-width:0.5;" width="4" x="561" y="190.89"/><text fill="#000000" font-family="sans-serif" font-size="14" font-weight="bold" lengthAdjust="spacing" textLength="38" x="520" y="212.8851">apps</text><text fill="#000000" font-family="sans-serif" font-size="14" lengthAdjust="spacing" textLength="4" x="520" y="229.182">&#160;</text><text fill="#000000" font-family="sans-serif" font-size="14" lengthAdjust="spacing" textLength="4" x="520" y="245.4789">&#160;</text></g><!--entity 7e2a4e5ddf767da74e3627bac6a374ab--><g id="elem_7e2a4e5ddf767da74e3627bac6a374ab"><rect fill="#F1F1F1" height="78.8906" rx="2.5" ry="2.5" style="stroke:#181818;stroke-width:0.5;" width="97" x="691.5" y="333.78"/><rect fill="#F1F1F1" height="10" style="stroke:#181818;stroke-width:0.5;" width="15" x="768.5" y="338.78"/><rect fill="#F1F1F1" height="2" style="stroke:#181818;stroke-width:0.5;" width="4" x="766.5" y="340.78"/><rect fill="#F1F1F1" height="2" style="stroke:#181818;stroke-width:0.5;" width="4" x="766.5" y="344.78"/><text fill="#000000" font-family="sans-serif" font-size="14" font-weight="bold" lengthAdjust="spacing" textLength="57" x="706.5" y="366.7751">models</text><text fill="#000000" font-family="sans-serif" font-size="14" lengthAdjust="spacing" textLength="4" x="706.5" y="383.072">&#160;</text><text fill="#000000" font-family="sans-serif" font-size="14" lengthAdjust="spacing" textLength="4" x="706.5" y="399.3689">&#160;</text></g><!--entity b583ec163138cbc420053d9505c5d494--><g id="elem_b583ec163138cbc420053d9505c5d494"><rect fill="#F1F1F1" height="78.8906" rx="2.5" ry="2.5" style="stroke:#181818;stroke-width:0.5;" width="87" x="775.5" y="179.89"/><rect fill="#F1F1F1" height="10" style="stroke:#181818;stroke-width:0.5;" width="15" x="842.5" y="184.89"/><rect fill="#F1F1F1" height="2" style="stroke:#181818;stroke-width:0.5;" width="4" x="840.5" y="186.89"/><rect fill="#F1F1F1" height="2" style="stroke:#181818;stroke-width:0.5;" width="4" x="840.5" y="190.89"/><text fill="#000000" font-family="sans-serif" font-size="14" font-weight="bold" lengthAdjust="spacing" textLength="47" x="790.5" y="212.8851">admin</text><text fill="#000000" font-family="sans-serif" font-size="14" lengthAdjust="spacing" textLength="4" x="790.5" y="229.182">&#160;</text><text fill="#000000" font-family="sans-serif" font-size="14" lengthAdjust="spacing" textLength="4" x="790.5" y="245.4789">&#160;</text></g><!--entity c509baf71490b274b46abcbb7c516a2f--><g id="elem_c509baf71490b274b46abcbb7c516a2f"><rect fill="#F1F1F1" height="78.8906" rx="2.5" ry="2.5" style="stroke:#181818;stroke-width:0.5;" width="70" x="22" y="333.78"/><rect fill="#F1F1F1" height="10" style="stroke:#181818;stroke-width:0.5;" width="15" x="72" y="338.78"/><rect fill="#F1F1F1" height="2" style="stroke:#181818;stroke-width:0.5;" width="4" x="70" y="340.78"/><rect fill="#F1F1F1" height="2" style="stroke:#181818;stroke-width:0.5;" width="4" x="70" y="344.78"/><text fill="#000000" font-family="sans-serif" font-size="14" font-weight="bold" lengthAdjust="spacing" textLength="30" x="37" y="366.7751">urls</text><text fill="#000000" font-family="sans-serif" font-size="14" lengthAdjust="spacing" textLength="4" x="37" y="383.072">&#160;</text><text fill="#000000" font-family="sans-serif" font-size="14" lengthAdjust="spacing" textLength="4" x="37" y="399.3689">&#160;</text></g><!--entity 2eac59511c39b61a7e986921a94bffbe--><g id="elem_2eac59511c39b61a7e986921a94bffbe"><rect fill="#F1F1F1" height="78.8906" rx="2.5" ry="2.5" style="stroke:#181818;stroke-width:0.5;" width="86" x="242" y="333.78"/><rect fill="#F1F1F1" height="10" style="stroke:#181818;stroke-width:0.5;" width="15" x="308" y="338.78"/><rect fill="#F1F1F1" height="2" style="stroke:#181818;stroke-width:0.5;" width="4" x="306" y="340.78"/><rect fill="#F1F1F1" height="2" style="stroke:#181818;stroke-width:0.5;" width="4" x="306" y="344.78"/><text fill="#000000" font-family="sans-serif" font-size="14" font-weight="bold" lengthAdjust="spacing" textLength="46" x="257" y="366.7751">views</text><text fill="#000000" font-family="sans-serif" font-size="14" lengthAdjust="spacing" textLength="4" x="257" y="383.072">&#160;</text><text fill="#000000" font-family="sans-serif" font-size="14" lengthAdjust="spacing" textLength="4" x="257" y="399.3689">&#160;</text></g><!--entity fdc650f987e1c10146d8649534f9fe4b--><g id="elem_fdc650f987e1c10146d8649534f9fe4b"><rect fill="#F1F1F1" height="78.8906" rx="2.5" ry="2.5" style="stroke:#181818;stroke-width:0.5;" width="80" x="127" y="333.78"/><rect fill="#F1F1F1" height="10" style="stroke:#181818;stroke-width:0.5;" width="15" x="187" y="338.78"/><rect fill="#F1F1F1" height="2" style="stroke:#181818;stroke-width:0.5;" width="4" x="185" y="340.78"/><rect fill="#F1F1F1" height="2" style="stroke:#181818;stroke-width:0.5;" width="4" x="185" y="344.78"/><text fill="#000000" font-family="sans-serif" font-size="14" font-weight="bold" lengthAdjust="spacing" textLength="40" x="142" y="366.7751">tests</text><text fill="#000000" font-family="sans-serif" font-size="14" lengthAdjust="spacing" textLength="4" x="142" y="383.072">&#160;</text><text fill="#000000" font-family="sans-serif" font-size="14" lengthAdjust="spacing" textLength="4" x="142" y="399.3689">&#160;</text></g><!--entity dfc2f93c6690372b07c6ae529640c516--><g id="elem_dfc2f93c6690372b07c6ae529640c516"><rect fill="#F1F1F1" height="78.8906" rx="2.5" ry="2.5" style="stroke:#181818;stroke-width:0.5;" width="78" x="22" y="472.67"/><rect fill="#F1F1F1" height="10" style="stroke:#181818;stroke-width:0.5;" width="15" x="80" y="477.67"/><rect fill="#F1F1F1" height="2" style="stroke:#181818;stroke-width:0.5;" width="4" x="78" y="479.67"/><rect fill="#F1F1F1" height="2" style="stroke:#181818;stroke-width:0.5;" width="4" x="78" y="483.67"/><text fill="#000000" font-family="sans-serif" font-size="14" font-weight="bold" lengthAdjust="spacing" textLength="38" x="37" y="505.6651">apps</text><text fill="#000000" font-family="sans-serif" font-size="14" lengthAdjust="spacing" textLength="4" x="37" y="521.962">&#160;</text><text fill="#000000" font-family="sans-serif" font-size="14" lengthAdjust="spacing" textLength="4" x="37" y="538.2589">&#160;</text></g><!--entity feab6590f4ca2853d5f367fbd21df65e--><g id="elem_feab6590f4ca2853d5f367fbd21df65e"><rect fill="#F1F1F1" height="78.8906" rx="2.5" ry="2.5" style="stroke:#181818;stroke-width:0.5;" width="97" x="294.5" y="472.67"/><rect fill="#F1F1F1" height="10" style="stroke:#181818;stroke-width:0.5;" width="15" x="371.5" y="477.67"/><rect fill="#F1F1F1" height="2" style="stroke:#181818;stroke-width:0.5;" width="4" x="369.5" y="479.67"/><rect fill="#F1F1F1" height="2" style="stroke:#181818;stroke-width:0.5;" width="4" x="369.5" y="483.67"/><text fill="#000000" font-family="sans-serif" font-size="14" font-weight="bold" lengthAdjust="spacing" textLength="57" x="309.5" y="505.6651">models</text><text fill="#000000" font-family="sans-serif" font-size="14" lengthAdjust="spacing" textLength="4" x="309.5" y="521.962">&#160;</text><text fill="#000000" font-family="sans-serif" font-size="14" lengthAdjust="spacing" textLength="4" x="309.5" y="538.2589">&#160;</text></g><!--entity c8f8d81fbf942c6b3e2e2b8273553183--><g id="elem_c8f8d81fbf942c6b3e2e2b8273553183"><rect fill="#F1F1F1" height="78.8906" rx="2.5" ry="2.5" style="stroke:#181818;stroke-width:0.5;" width="87" x="362.5" y="333.78"/><rect fill="#F1F1F1" height="10" style="stroke:#181818;stroke-width:0.5;" width="15" x="429.5" y="338.78"/><rect fill="#F1F1F1" height="2" style="stroke:#181818;stroke-width:0.5;" width="4" x="427.5" y="340.78"/><rect fill="#F1F1F1" height="2" style="stroke:#181818;stroke-width:0.5;" width="4" x="427.5" y="344.78"/><text fill="#000000" font-family="sans-serif" font-size="14" font-weight="bold" lengthAdjust="spacing" textLength="47" x="377.5" y="366.7751">admin</text><text fill="#000000" font-family="sans-serif" font-size="14" lengthAdjust="spacing" textLength="4" x="377.5" y="383.072">&#160;</text><text fill="#000000" font-family="sans-serif" font-size="14" lengthAdjust="spacing" textLength="4" x="377.5" y="399.3689">&#160;</text></g><!--link 1bd0271e26fa7ed2c05fe4844e45906b to 23d77d41fefe8e8779b28258cc6ae9c8--><g id="link_1bd0271e26fa7ed2c05fe4844e45906b_23d77d41fefe8e8779b28258cc6ae9c8"><path codeLine="115" d="M301.47,120.3 C309.37,138.96 316.4705,155.7149 324.3505,174.3249 " fill="none" id="1bd0271e26fa7ed2c05fe4844e45906b-to-23d77d41fefe8e8779b28258cc6ae9c8" style="stroke:#181818;stroke-width:1.0;"/><polygon fill="#181818" points="326.69,179.85,326.8642,170.0027,324.7404,175.2457,319.4974,173.122,326.69,179.85" style="stroke:#181818;stroke-width:1.0;"/></g><!--link 84cd306abce8415462fb7259ab382e9d to 23d77d41fefe8e8779b28258cc6ae9c8--><g id="link_84cd306abce8415462fb7259ab382e9d_23d77d41fefe8e8779b28258cc6ae9c8"><path codeLine="116" d="M388.12,120.3 C379.53,138.96 371.7773,155.789 363.2173,174.399 " fill="none" id="84cd306abce8415462fb7259ab382e9d-to-23d77d41fefe8e8779b28258cc6ae9c8" style="stroke:#181818;stroke-width:1.0;"/><polygon fill="#181818" points="360.71,179.85,368.1049,173.345,362.7994,175.3075,360.8369,170.002,360.71,179.85" style="stroke:#181818;stroke-width:1.0;"/></g><!--link 151dc171a0cc85173df9fab9c516f9fb to 61dcb8780f3a1352cf62142baa004256--><g id="link_151dc171a0cc85173df9fab9c516f9fb_61dcb8780f3a1352cf62142baa004256"><path codeLine="117" d="M961,120.3 C961,138.96 961,155.24 961,173.85 " fill="none" id="151dc171a0cc85173df9fab9c516f9fb-to-61dcb8780f3a1352cf62142baa004256" style="stroke:#181818;stroke-width:1.0;"/><polygon fill="#181818" points="961,179.85,965,170.85,961,174.85,957,170.85,961,179.85" style="stroke:#181818;stroke-width:1.0;"/></g><!--link df776118805ac4b8e078d141fd0493db to 7e2a4e5ddf767da74e3627bac6a374ab--><g id="link_df776118805ac4b8e078d141fd0493db_7e2a4e5ddf767da74e3627bac6a374ab"><path codeLine="118" d="M681.14,259.05 C692.98,281.82 705.1311,305.1871 716.9911,327.9871 " fill="none" id="df776118805ac4b8e078d141fd0493db-to-7e2a4e5ddf767da74e3627bac6a374ab" style="stroke:#181818;stroke-width:1.0;"/><polygon fill="#181818" points="719.76,333.31,719.1553,323.4797,717.4526,328.8742,712.0581,327.1715,719.76,333.31" style="stroke:#181818;stroke-width:1.0;"/></g><!--link 99213a71be60e5746f7018d66bb13f34 to 7e2a4e5ddf767da74e3627bac6a374ab--><g id="link_99213a71be60e5746f7018d66bb13f34_7e2a4e5ddf767da74e3627bac6a374ab"><path codeLine="119" d="M763.99,120.24 C762.13,138.36 759.92,160.23 758,179.89 C752.8,233.13 747.6492,288.7152 744.0792,327.5552 " fill="none" id="99213a71be60e5746f7018d66bb13f34-to-7e2a4e5ddf767da74e3627bac6a374ab" style="stroke:#181818;stroke-width:1.0;"/><polygon fill="#181818" points="743.53,333.53,748.337,324.9339,743.9876,328.551,740.3706,324.2017,743.53,333.53" style="stroke:#181818;stroke-width:1.0;"/></g><!--link 99213a71be60e5746f7018d66bb13f34 to df776118805ac4b8e078d141fd0493db--><g id="link_99213a71be60e5746f7018d66bb13f34_df776118805ac4b8e078d141fd0493db"><path codeLine="120" d="M737.62,120.3 C723.04,138.96 709.314,156.512 694.774,175.122 " fill="none" id="99213a71be60e5746f7018d66bb13f34-to-df776118805ac4b8e078d141fd0493db" style="stroke:#181818;stroke-width:1.0;"/><polygon fill="#181818" points="691.08,179.85,699.773,175.2206,694.1583,175.91,693.469,170.2953,691.08,179.85" style="stroke:#181818;stroke-width:1.0;"/></g><!--link b583ec163138cbc420053d9505c5d494 to 7e2a4e5ddf767da74e3627bac6a374ab--><g id="link_b583ec163138cbc420053d9505c5d494_7e2a4e5ddf767da74e3627bac6a374ab"><path codeLine="121" d="M798.86,259.05 C787.02,281.82 774.8689,305.1871 763.0089,327.9871 " fill="none" id="b583ec163138cbc420053d9505c5d494-to-7e2a4e5ddf767da74e3627bac6a374ab" style="stroke:#181818;stroke-width:1.0;"/><polygon fill="#181818" points="760.24,333.31,767.9419,327.1715,762.5474,328.8742,760.8447,323.4797,760.24,333.31" style="stroke:#181818;stroke-width:1.0;"/></g><!--link 2eac59511c39b61a7e986921a94bffbe to feab6590f4ca2853d5f367fbd21df65e--><g id="link_2eac59511c39b61a7e986921a94bffbe_feab6590f4ca2853d5f367fbd21df65e"><path codeLine="122" d="M301.47,413.09 C309.37,431.74 316.4705,448.4949 324.3505,467.1049 " fill="none" id="2eac59511c39b61a7e986921a94bffbe-to-feab6590f4ca2853d5f367fbd21df65e" style="stroke:#181818;stroke-width:1.0;"/><polygon fill="#181818" points="326.69,472.63,326.8642,462.7827,324.7404,468.0257,319.4974,465.902,326.69,472.63" style="stroke:#181818;stroke-width:1.0;"/></g><!--link c8f8d81fbf942c6b3e2e2b8273553183 to feab6590f4ca2853d5f367fbd21df65e--><g id="link_c8f8d81fbf942c6b3e2e2b8273553183_feab6590f4ca2853d5f367fbd21df65e"><path codeLine="123" d="M388.12,413.09 C379.53,431.74 371.7773,448.569 363.2173,467.179 " fill="none" id="c8f8d81fbf942c6b3e2e2b8273553183-to-feab6590f4ca2853d5f367fbd21df65e" style="stroke:#181818;stroke-width:1.0;"/><polygon fill="#181818" points="360.71,472.63,368.1049,466.125,362.7994,468.0875,360.8369,462.782,360.71,472.63" style="stroke:#181818;stroke-width:1.0;"/></g><!--SRC=[hPJDRXmt48JlynGB7mKO8PjaT_FYQnuYoA5_5IMITY79SO0WxnvgPI0sPEteaDiSfhgB_8ebjxV7BtStVztSNsydiJ_aEWuVJW_7tyEU7d_wS937WxVMggECD19mpZQaWMOezvxP3dzlThmx7U_Z_kcWcaFIj25ZQLR1sXn8Khcqf267NxQhgyyFjuzNLzks_VgDigeNe1g0AHGELaP6NokYZrbGpye_R-BBQscRMSMNcBNWgADr3a_j7H33npnBd-BnwRKKJG6QCK6dGEimSrebg6JeKFCibTFfjHAQ4tcl6HaSJ3GL60QReSGqFYllZXu_E2jtyrPGr89x7HqXbM1CqSOGqr-s-jtD_LVfF__1-Vb1Jh-zaA40TfSbxcOP4xE9P6C97jnTloDJH_LriYh5Z4UbvZbJTDgekBxqRJAuXCh4POslRO0bGksW8gLq6FYAp3TkFp_6mzSSJTHP9eM4T4ee8immkzBeqxFCxznw4c6jp6M8TUKen5xNRNlfi_cBspm-tBsswyfiJNZcg1LBqZ8yg7UDDMTmVVkWSq9jGbK3Iom99fNAZgXQMxP-8O8z1sJ1FesuJwLMUqgLHM6kGM8N8fXjBPbzEEa2ukuP9Egs_CEw-Vvs11T_wJ6MWf1Sg4T389MLmBQMwgK8wk0MLh7LngOh-AMCjioMOSFxx9SYgBV7wnUc2WbUiGPMMVThu6hO39wZFMJATqnjbAcILFii2jIrF_-cIiyHN2b-6mo4s9WBvseJNQie9kE29Ii-cHeNmAGRZfAJAQhLKZiwBqoh8rReLo8kWF4qoDaCSPP6e8MUd_Q0YRqyMtuRJ8OehjRARWAyxdLaGqfTZUA98ow1CKvshgavEnXg2mXG1cfZjChj1s1sg_EZV_oqMrZRRYkzRynkqPp7x9NAjji0vp5xJs3RVTF_vvWzpzlkgtkVczttS1wpby9jDshl6lCl]--></g></svg>